<svg xmlns="http://www.w3.org/2000/svg" fill="green" viewBox="0 0 24 24" width="24px" height="24px">
    <path
        d="M 17.984375 -0.015625 A 1.0001 1.0001 0 0 0 17 0.99804688 L 17 1.9980469 L 15.087891 1.9980469 L 15 1.9980469 L 8.9121094 1.9980469 C 6.7637279 1.9980469 5.0019531 3.7617748 5.0019531 5.9101562 L 5.0019531 13.748047 C 4.6248425 13.84519 4.2337647 13.937733 3.8125 14.017578 A 1.0001 1.0001 0 0 0 3.9980469 16.001953 L 5.0019531 16.001953 L 5.0019531 20.087891 C 5.0019531 22.236272 6.7637279 24 8.9121094 24 L 15.087891 24 C 17.236272 24 19 22.236272 19 20.087891 L 19 13.814453 C 19.764199 13.252082 20.418524 12.560928 20.878906 11.708984 A 1.0001 1.0001 0 0 0 20.494141 10.363281 L 19 9.5136719 L 19 5.9980469 L 19 5.9101562 L 19 0.99804688 A 1.0001 1.0001 0 0 0 17.984375 -0.015625 z M 8.9121094 3.9980469 L 15.087891 3.9980469 C 16.153509 3.9980469 17 4.8445377 17 5.9101562 L 17 5.9980469 L 17 8.375 L 14.816406 7.1328125 A 1.0001 1.0001 0 0 0 14.339844 7.0019531 A 1.0001 1.0001 0 0 0 13.570312 7.3417969 C 12.538319 8.5205718 11.672735 9.6027185 10.714844 10.550781 C 10.611974 10.284054 10.521905 10.019942 10.464844 9.7734375 C 10.225844 8.7474375 8.7565781 8.7503906 8.5175781 9.7753906 C 8.2403411 10.967337 7.6718289 12.044888 7.0019531 12.841797 L 7.0019531 5.9101562 C 7.0019531 4.8445377 7.8464908 3.9980469 8.9121094 3.9980469 z M 14.503906 9.2539062 L 18.453125 11.501953 C 17.818624 12.191447 17.005023 12.792957 15.929688 13.197266 C 14.46962 13.746227 12.742086 14.001953 11.226562 14.001953 L 9.3085938 14.001953 C 11.471548 12.689495 12.996705 11.000381 14.503906 9.2539062 z M 17 14.90625 L 17 20.087891 C 17 21.153509 16.153509 22 15.087891 22 L 8.9121094 22 C 7.8464908 22 7.0019531 21.153509 7.0019531 20.087891 L 7.0019531 16.001953 L 11.226562 16.001953 C 12.959041 16.001953 14.88463 15.727601 16.632812 15.070312 C 16.758622 15.02301 16.875862 14.957758 17 14.90625 z" />
</svg>
